<?xml version="1.0" standalone="no"?>
<!DOCTYPE svg PUBLIC "-//W3C//DTD SVG 20010904//EN"
 "http://www.w3.org/TR/2001/REC-SVG-20010904/DTD/svg10.dtd">
<svg version="1.0" xmlns="http://www.w3.org/2000/svg"
 width="320.000000pt" height="320.000000pt" viewBox="0 0 320.000000 320.000000"
 preserveAspectRatio="xMidYMid meet">
<metadata>
Created by potrace 1.14, written by Peter Selinger 2001-2017
</metadata>
<g transform="translate(0.000000,320.000000) scale(0.100000,-0.100000)"
fill="#000000" stroke="none">
<path d="M1160 2749 c-7 -11 -9 -27 -6 -34 2 -7 -17 -80 -44 -162 -27 -81
-117 -357 -200 -613 -83 -256 -189 -580 -235 -720 -46 -140 -113 -345 -149
-454 -70 -216 -72 -240 -18 -234 26 3 31 15 146 361 l118 357 189 0 189 0 0
-337 c1 -341 6 -418 31 -434 8 -5 330 -9 716 -9 625 0 703 2 717 16 9 8 16 19
16 24 0 4 -122 219 -272 476 -389 673 -418 723 -418 735 0 6 23 43 52 83 49
67 213 294 485 673 69 96 123 182 124 195 0 13 4 32 8 43 5 11 4 28 -1 38 -8
16 -53 17 -723 17 -713 0 -714 0 -725 -21z m679 -981 l-1 -923 -50 150 c-145
440 -536 1636 -543 1668 l-7 27 301 0 301 0 -1 -922z m681 917 c0 -3 -49 -71
-108 -152 -59 -82 -185 -256 -279 -388 -94 -132 -178 -249 -187 -260 -14 -18
-15 17 -16 393 l0 412 295 0 c162 0 295 -2 295 -5z m-1370 -820 l0 -535 -176
0 -175 0 7 23 c4 12 54 166 111 342 58 176 133 407 166 512 34 106 63 193 65
193 1 0 2 -241 2 -535z m275 -30 c75 -231 143 -437 151 -458 8 -20 14 -40 14
-42 0 -3 -79 -5 -175 -5 l-175 0 1 533 1 532 23 -70 c13 -38 85 -259 160 -490z
m640 -510 c70 -121 197 -340 282 -487 85 -147 155 -269 154 -273 -1 -4 -432
-8 -568 -5 -5 0 -7 223 -5 496 1 274 4 495 6 493 2 -2 61 -103 131 -224z
m-338 -415 c61 -184 112 -339 112 -345 1 -6 -105 -10 -299 -10 l-300 0 0 348
0 347 188 -2 187 -3 112 -335z"/>
</g>
</svg>
